<svg width="32" height="31" viewBox="0 0 32 31" fill="none" xmlns="http://www.w3.org/2000/svg">
<path d="M11.6218 30.5769C11.5663 30.5597 11.5146 30.5291 11.4725 30.4851L1.0924 19.548C1.01011 19.46 0.979489 19.3356 1.01394 19.2189L5.29686 4.76249C5.33131 4.64575 5.42513 4.55772 5.54186 4.52901L20.2049 1.00965C20.3216 0.980942 20.4441 1.01729 20.5283 1.10533L30.9084 12.0424C30.9907 12.1304 31.0194 12.2548 30.9869 12.3715L26.7039 26.8298C26.6695 26.9447 26.5757 27.0327 26.459 27.0614L11.7959 30.5808C11.7385 30.5961 11.6773 30.5942 11.6218 30.5769ZM1.71626 19.2246L11.8284 29.8803L26.1126 26.4509L30.2845 12.3658L20.1724 1.71007L5.88825 5.13949L1.71626 19.2246Z" fill="white" stroke="white" stroke-width="0.4"/>
<path d="M22.3924 22.6579L6.90256 18.0688C6.78582 18.0343 6.69777 17.9405 6.66906 17.8238C6.64227 17.7071 6.67861 17.5846 6.76472 17.5004L18.4845 6.37963C18.6606 6.21313 18.9879 6.31073 19.0453 6.54612L22.8172 22.256C22.844 22.3728 22.8077 22.4952 22.7215 22.5794C22.6335 22.6617 22.5091 22.6923 22.3924 22.6579ZM7.65274 17.5884L22.0249 21.8446L18.5247 7.26951L7.65274 17.5884Z" fill="white" stroke="white" stroke-width="0.4"/>
<path d="M26.1283 26.9561L22.2358 22.5564C22.1267 22.4339 22.1229 22.2502 22.2281 22.122L30.1299 12.3964L18.6207 6.95179L6.0015 5.24857L7.33343 17.7089L6.66367 17.7817L5.28577 4.89262C5.27429 4.78927 5.31066 4.68784 5.38529 4.61512C5.45993 4.54431 5.56322 4.50987 5.66656 4.52326L18.7623 6.28964C18.7968 6.29538 18.8293 6.30496 18.8618 6.32027L30.8074 11.9715C30.9012 12.0156 30.9681 12.0998 30.9911 12.2012C31.0141 12.3026 30.9911 12.4079 30.9242 12.4883L22.9305 22.3249L26.6335 26.5102L26.1283 26.9561Z" fill="white" stroke="white" stroke-width="0.4"/>
<path d="M20.7009 1.45824L20.0549 1.26695L18.4894 6.55349L19.1353 6.74478L20.7009 1.45824Z" fill="white" stroke="white" stroke-width="0.400067" stroke-miterlimit="2"/>
<path d="M11.6219 30.5769C11.5205 30.5463 11.4401 30.4717 11.4018 30.3721L6.79166 18.1529L1.42744 19.6399L1.24756 18.9911L6.90841 17.42C7.0749 17.374 7.25098 17.464 7.31413 17.6266L11.8765 29.7177L22.2891 22.0627L22.6891 22.6062L11.9167 30.5253C11.8325 30.5884 11.7233 30.6075 11.6219 30.5769Z" fill="white" stroke="white" stroke-width="0.4"/>
</svg>
