<svg width="241" height="100" viewBox="0 0 241 100" fill="none" xmlns="http://www.w3.org/2000/svg">
<path d="M2.14032 32.0597H10.6518C12.7921 32.2588 14.7831 33.105 16.5253 34.648C19.2629 37.4354 20.6566 42.2138 20.6566 49.0329V49.5307C20.6566 59.1372 18.5163 65.1102 14.1858 67.3999C12.1948 68.2958 10.2536 68.7438 8.31241 68.7438C7.71511 68.694 7.26713 68.6442 6.86893 68.6442H6.57029C2.1901 68.6442 0 68.4452 0 68.047V67.9474C0 67.4994 0.398199 67.2506 1.24437 67.1012C1.49325 66.7528 1.74212 66.3546 1.84167 65.8569L1.74212 64.6125V34.7476C1.74212 33.9512 1.1946 33.4036 0.0995501 33.105L0 32.7068C0 32.2588 0.746625 32.0597 2.14032 32.0597ZM8.11331 37.1865V63.169C8.11331 63.3183 8.21286 63.3681 8.31241 63.3681H9.15858C12.4437 63.3681 14.0863 59.4857 14.0863 51.7706V47.3406C14.0863 40.5712 12.593 37.1865 9.65633 37.1865H8.11331Z" fill="white"/>
<path d="M36.4852 37.535C36.734 37.535 36.9829 38.5802 37.3314 40.6708C37.4309 40.6708 37.5802 41.2681 37.7295 42.5124L37.5802 42.612H36.9829C36.734 41.7658 36.2363 41.3676 35.5892 41.3676H31.2588V41.4672C31.2588 41.6165 32.4534 45.1505 34.7928 52.119H35.0417C35.5395 50.5262 36.3359 49.4809 37.3314 48.9832C37.9287 48.7841 38.3268 48.6845 38.4762 48.6845H38.8744C40.3178 49.033 41.0147 50.0782 41.0147 51.8204C41.0147 53.0149 40.7658 53.6122 40.3178 53.6122C40.2183 53.6122 40.0192 53.4131 39.7703 53.0149L39.2228 52.9154H39.0735C38.078 52.9154 37.182 54.11 36.2861 56.4494C37.9784 61.3273 38.9739 63.7663 39.2726 63.8659C39.2726 64.0152 39.5712 64.1645 40.2183 64.2641L40.3178 64.4134V64.5129C40.3178 64.8116 40.1685 64.9609 39.8699 64.9609H35.2906C34.8426 64.9609 34.5937 64.6623 34.4444 64.1147C34.1955 63.2188 33.9964 62.8206 33.8471 62.8206C32.553 64.3636 31.0099 65.1102 29.218 65.1102H28.9194C26.3809 65.1102 24.589 63.617 23.5935 60.5807C23.2948 59.3364 23.1455 58.1418 23.1455 56.9472V56.549C23.1455 52.8158 24.8379 49.5307 28.2225 46.6935V46.594C27.8741 45.6483 26.8288 42.7116 25.1365 37.6345L25.2858 37.535H35.0915C35.4399 37.6345 35.9376 37.5847 36.4852 37.535ZM27.8243 55.653V57.4449C27.8243 59.8341 28.571 61.0785 30.114 61.0785C31.0099 61.0785 31.8561 60.4812 32.6027 59.2368C31.1593 54.9562 30.2135 52.2683 29.7656 51.223C28.4216 52.1688 27.8243 53.662 27.8243 55.653Z" fill="white"/>
<path d="M44.6979 32.0597H53.2094C55.3498 32.2588 57.3408 33.105 59.0829 34.648C61.8205 37.4354 63.2142 42.2138 63.2142 49.0329V49.5307C63.2142 59.1372 61.0739 65.1102 56.7435 67.3999C54.7525 68.2958 52.8112 68.7438 50.87 68.7438C50.2727 68.694 49.8247 68.6442 49.4265 68.6442H49.1279C44.7477 68.6442 42.5576 68.4452 42.5576 68.047V67.9474C42.5576 67.4994 42.9558 67.2506 43.802 67.1012C44.0509 66.7528 44.2997 66.3546 44.3993 65.8569L44.2997 64.6125V34.7476C44.2997 33.9512 43.7522 33.4036 42.6572 33.105L42.5576 32.7068C42.5576 32.2588 43.2545 32.0597 44.6979 32.0597ZM50.6709 37.1865V63.169C50.6709 63.3183 50.7705 63.3681 50.87 63.3681H51.7162C55.0013 63.3681 56.6439 59.4857 56.6439 51.7706V47.3406C56.6439 40.5712 55.1507 37.1865 52.2139 37.1865H50.6709Z" fill="white"/>
<path d="M171.524 31.9103H179.538C179.787 31.9103 179.986 32.0098 180.135 32.2089L180.036 32.408V32.9058C180.036 34.0506 180.932 36.9873 182.724 41.6662C183.968 45.5984 184.764 47.8382 185.063 48.3858C185.312 48.1369 186.357 45.0011 188.149 39.0281C189.244 36.0914 189.792 34.0506 189.792 32.9556V32.5573C189.792 32.1591 189.991 31.9601 190.389 31.9601H198.004C198.403 31.9601 198.602 32.1591 198.602 32.5573C198.602 32.8062 198.204 33.1049 197.357 33.5031C197.009 34.0506 196.86 34.4986 196.86 34.847V66.0061C196.86 66.9518 197.407 67.5491 198.502 67.8477L198.602 68.0468V68.445C198.602 68.5446 198.502 68.6441 198.303 68.7437H189.045C188.945 68.7437 188.846 68.6441 188.746 68.445V67.9971L189.991 67.1509C190.24 66.8025 190.389 66.4043 190.389 66.0061V46.8427C190.24 46.8427 188.846 51.0736 186.158 59.5353C185.959 60.4313 185.66 60.8793 185.212 60.8793H184.267C183.719 60.8793 183.271 59.9833 182.923 58.1914C182.773 58.0421 181.529 54.2592 179.14 46.8427H178.941V66.0061C178.941 66.9518 179.438 67.4993 180.384 67.6486C180.583 67.6984 180.683 67.9473 180.683 68.2459V68.3455C180.683 68.445 180.583 68.5446 180.384 68.6441H171.425C171.325 68.6441 171.226 68.5446 171.126 68.3455V67.9971L172.37 67.1509C172.52 67.0016 172.719 66.6531 172.868 66.1056L172.769 64.8612V35.6434C172.769 35.3447 172.818 34.9466 172.868 34.4986C172.868 33.752 172.271 33.2044 171.126 32.856V32.2587C171.176 32.1592 171.275 32.0596 171.524 31.9103Z" fill="white"/>
<path d="M201.986 32.0602C202.783 32.2593 203.977 32.3589 205.471 32.3589H216.869C218.163 32.3589 219.258 32.2593 220.154 32.0602L221.498 38.8794L220.801 39.178C220.652 39.178 220.304 38.73 219.657 37.8839C219.059 37.6848 218.512 37.5852 218.114 37.5852H214.331V66.0067C214.331 66.9026 214.828 67.4999 215.874 67.7986C216.023 67.7986 216.073 67.9479 216.073 68.2963V68.3959C216.073 68.4954 215.973 68.595 215.774 68.6945H206.217C206.118 68.6945 206.018 68.595 205.919 68.3959V68.2963C205.919 67.8981 206.367 67.5497 207.263 67.3008C207.611 66.8031 207.76 66.3551 207.76 66.0067V38.2821L207.86 37.5852C207.711 37.5852 207.661 37.5354 207.661 37.3861L206.964 37.4857H203.878C202.634 37.4857 201.887 37.9834 201.638 38.9789C201.489 38.9789 201.439 39.0287 201.439 39.0785C200.991 38.9789 200.742 38.8794 200.593 38.8794V38.3816C201.339 34.101 201.787 32.0104 201.937 32.0104H201.986V32.0602Z" fill="white"/>
<path d="M222.544 31.9103H231.503C231.901 31.9103 232.1 32.1094 232.1 32.5076V32.6071C232.1 32.7067 231.652 33.0053 230.757 33.4533C230.408 33.9013 230.259 34.3492 230.259 34.7972V63.0694H236.929C237.775 63.0694 238.571 62.4721 239.268 61.2775C239.816 61.3272 240.114 61.4268 240.114 61.6259C239.318 66.3047 238.82 68.6441 238.571 68.6441C237.874 68.6441 237.526 68.5944 237.526 68.445C236.481 68.4948 235.734 68.5446 235.286 68.5446H222.544C222.444 68.5446 222.345 68.445 222.245 68.2459V67.7482L223.489 66.902C223.738 66.7029 223.888 66.3545 223.888 65.8568V34.4488C223.888 33.6026 223.39 33.0551 222.345 32.7565L222.245 32.5573V32.1592C222.195 32.1592 222.345 32.0596 222.544 31.9103Z" fill="white"/>
<path d="M158.036 49.9783C164.755 55.0553 166.895 62.7206 164.457 69.0421C161.072 77.6531 154.452 80.988 145.443 79.8432C146.438 88.3049 143.75 95.1241 135.637 98.5585C127.623 101.943 121.103 98.907 115.627 92.5856C110.003 99.4545 103.034 102.142 94.7219 98.1106C87.3055 94.477 84.8665 87.9067 85.9615 79.893C77.0518 80.988 70.2824 77.8024 67.0471 69.2909C64.0606 61.4763 67.0969 55.1549 73.468 50.1276C66.6489 44.503 63.8615 37.7337 67.5448 29.2222C69.0381 25.7379 71.7259 23.2492 75.1604 21.6066C78.5949 19.964 82.1786 19.7152 85.9118 20.3125C84.8665 11.0046 87.9525 4.03606 97.1111 0.950014C104.776 -1.63828 110.849 1.54732 115.727 7.57008C121.501 0.551824 128.569 -2.33512 137.13 2.14462C144.248 5.87774 146.438 12.3982 145.393 20.2129C154.551 19.1179 161.47 22.403 164.556 31.3127C167.144 38.8785 164.158 45.0506 158.036 49.9783ZM103.383 71.6303C101.79 74.0195 99.2514 75.015 96.6134 74.5173C96.1156 74.4177 95.4188 74.4675 95.0703 74.7662C91.5861 77.9518 90.1426 81.8342 91.4865 86.513C92.9798 91.7394 98.1564 95.0743 103.482 94.3277C108.808 93.5811 112.89 88.952 112.94 83.5763C112.989 81.0876 112.94 78.5491 112.989 76.0603C112.989 75.7119 113.238 75.1146 113.487 75.015C115.08 74.5671 116.673 74.2684 118.465 73.8702C118.465 74.5173 118.465 74.9653 118.465 75.463C118.514 78.4993 118.465 81.5853 118.664 84.6216C119.012 89.6488 123.79 94.0788 128.818 94.3277C133.596 94.5268 137.926 91.8389 139.718 87.6081C141.51 83.3772 140.365 78.549 136.981 75.2141C136.184 74.4675 135.488 74.2684 134.442 74.5173C132.402 75.015 129.266 73.8702 128.22 71.6801C129.216 71.4312 130.211 71.0828 131.257 70.9335C133.248 70.6846 134.293 69.5896 134.791 67.6483C135.288 65.7071 135.936 63.8157 136.533 61.8247C136.881 61.974 137.08 62.0736 137.279 62.1731C139.519 63.5668 140.714 66.3044 140.266 68.9425C140.166 69.4402 140.067 70.1869 140.365 70.4855C143.452 74.0693 147.782 75.6621 152.311 74.2186C157.687 72.5263 160.823 67.2999 159.927 61.7749C159.081 56.5983 154.402 52.7657 148.927 52.7159C146.189 52.7159 143.452 52.7159 140.714 52.7159C140.316 52.7159 139.868 52.6661 139.32 52.6661C139.818 51.0236 140.266 49.5801 140.664 48.1366C140.863 47.3402 141.212 47.0416 142.058 47.0416C144.347 47.0913 146.637 47.0913 148.977 47.0416C156.493 47.0416 161.818 39.7246 159.429 32.6566C157.787 27.8285 154.004 25.0908 149.076 24.9913C145.791 24.9415 143.004 26.3352 140.764 28.7742C140.216 29.3715 139.967 29.919 140.166 30.7652C140.813 33.8014 139.171 36.8875 136.483 37.883C133.795 34.8965 131.107 31.91 128.37 28.9235C127.872 28.376 128.021 28.0275 128.42 27.5796C130.012 25.7877 132.003 24.7922 134.343 25.2402C135.886 25.5388 136.632 24.8917 137.528 23.946C140.963 20.1133 141.461 14.4888 138.723 10.3077C136.035 6.17639 130.709 4.33471 125.931 5.97728C121.351 7.57008 118.664 11.5521 118.514 16.6789C118.415 19.1178 118.514 21.507 118.465 23.946C118.465 24.2944 118.315 24.8917 118.116 24.9415C116.474 25.3895 114.831 25.7379 113.039 26.1859C113.039 25.489 113.039 25.0411 113.039 24.5931C113.039 21.6066 113.089 18.6201 112.989 15.6336C112.74 9.36197 106.618 4.38449 100.446 5.52931C96.1156 6.32571 92.9798 8.76468 91.6359 13.0453C90.1924 17.4753 91.4865 21.3577 94.7219 24.6429C95.4188 25.3397 96.0658 25.5388 97.0613 25.2899C99.2514 24.7922 102.636 25.937 103.482 28.376C102.288 28.6746 101.143 29.0231 99.9483 29.1724C98.1066 29.471 97.1111 30.4167 96.6631 32.2086C96.1654 34.1001 95.5183 35.9418 94.9708 37.883C92.0341 36.34 90.7897 33.5526 91.4368 30.2674C91.4865 29.919 91.4368 29.3715 91.1879 29.1226C88.7987 26.4845 85.9615 24.9913 82.2782 25.0411C75.7079 25.0411 70.382 31.3625 71.8255 38.3309C72.9205 43.5573 77.3505 46.9918 82.7262 46.9918C85.8122 46.9918 88.948 46.9918 92.2332 46.9918C91.7354 48.6343 91.2874 50.1276 90.8892 51.6208C90.6901 52.467 90.2422 52.6661 89.4458 52.6661C86.8575 52.6163 84.2692 52.5666 81.6809 52.7159C75.0111 53.1141 70.1331 59.8835 71.8752 66.3044C73.0698 70.6348 75.8075 73.5218 80.2374 74.4675C84.319 75.3635 87.853 74.0195 90.7399 71.033C91.387 70.3362 91.5861 69.7389 91.387 68.7932C90.7897 65.956 92.1834 63.1686 94.8215 61.9242C97.5591 65.2094 100.446 68.395 103.383 71.6303Z" fill="white"/>
<path d="M139.569 44.6522C139.37 45.4984 139.271 46.1455 139.072 46.8423C137.081 53.4624 135.04 60.0327 133.099 66.6527C132.651 68.1958 131.804 68.8926 130.311 69.1913C125.184 70.3361 120.107 71.5307 114.98 72.7253C113.189 73.1235 111.446 73.4719 109.704 73.9696C108.709 74.2683 108.012 74.0194 107.365 73.2728C104.378 69.9877 101.392 66.7025 98.4054 63.4174C96.4642 61.277 94.5728 59.1367 92.6315 57.0462C91.7854 56.1502 91.5863 55.2543 91.9347 54.0597C93.627 48.4849 95.2696 42.9599 96.962 37.3851C97.3602 35.9914 97.9077 34.6475 98.2063 33.204C98.505 31.9099 99.3512 31.3623 100.496 31.0637C104.03 30.2673 107.564 29.4211 111.098 28.6247C114.532 27.8283 118.017 27.0817 121.451 26.1858C122.447 25.9369 123.144 26.136 123.791 26.8826C127.175 30.6655 130.61 34.3986 134.044 38.1815C135.637 39.9236 137.18 41.6658 138.723 43.4079C139.121 43.8061 139.37 44.3038 139.569 44.6522ZM123.343 58.2408C123.343 58.1412 123.293 57.9421 123.293 57.7928C122.048 52.0189 120.804 46.2948 119.51 40.5209C119.211 39.2268 118.514 39.0775 117.519 40.0232C113.388 44.0052 109.256 47.9872 105.125 51.9691C104.03 53.0642 104.179 53.7113 105.673 54.1593C108.759 55.1547 111.845 56.1005 114.931 57.0462C117.22 57.743 119.46 58.4897 121.75 59.1865C122.845 59.5349 123.343 59.2363 123.343 58.2408ZM100.894 35.7923C101.342 40.4214 101.74 45.0504 102.188 49.6297C102.238 50.0279 102.487 50.5755 102.786 50.675C103.084 50.7746 103.632 50.5257 103.93 50.227C108.012 46.3446 112.044 42.4621 116.026 38.5299C116.324 38.2313 116.673 37.634 116.573 37.4349C116.324 37.0367 115.827 36.738 115.379 36.6385C111.198 35.7425 107.016 34.8964 102.835 34.0502C101.392 33.8511 100.844 34.3488 100.894 35.7923ZM121.501 40.073C122.049 42.4621 122.596 44.9509 123.144 47.4894C123.84 50.6252 124.487 53.8108 125.234 56.9466C125.334 57.3448 125.583 57.7928 125.931 57.9919C126.13 58.0915 126.678 57.7928 126.926 57.5439C129.913 53.9104 132.899 50.2768 135.886 46.5935C136.533 45.7971 136.334 45.0007 135.388 44.5029C134.642 44.1047 133.845 43.8061 133.049 43.4577C129.714 42.0142 126.429 40.5707 123.094 39.1272C121.949 38.6793 121.451 38.9281 121.501 40.073ZM103.682 56.648C103.881 57.1955 103.93 57.4444 103.98 57.6933C105.424 61.6752 106.867 65.6572 108.36 69.5895C108.858 70.9334 109.605 71.1325 110.799 70.3361C114.134 67.9469 117.519 65.5577 120.854 63.1685C121.252 62.8698 121.501 62.4219 121.8 62.0237C121.352 61.725 121.003 61.2771 120.505 61.1277C116.424 59.7838 112.293 58.5394 108.161 57.2453C107.066 56.8969 106.021 56.4987 104.926 56.2996C104.578 56.1005 104.13 56.4489 103.682 56.648ZM133.696 41.4169C133.596 40.9689 133.596 40.8196 133.497 40.7698C130.411 37.3353 127.325 33.8511 124.189 30.4664C123.542 29.7696 122.845 29.9687 122.546 30.9144C122.198 31.8601 121.949 32.8058 121.65 33.8013C121.153 35.4937 121.501 36.2901 123.094 36.9869C126.18 38.3308 129.216 39.6748 132.302 40.9689C132.7 41.0685 133.099 41.168 133.696 41.4169ZM105.772 32.0592C105.772 32.1587 105.772 32.3081 105.772 32.4076C105.971 32.5072 106.17 32.7063 106.369 32.7561C110.003 33.5027 113.637 34.2991 117.27 34.9959C118.415 35.2448 119.211 34.6475 119.61 33.5524C119.958 32.6067 120.207 31.6112 120.505 30.6655C120.953 29.1723 120.456 28.6745 118.962 29.0229C115.777 29.7696 112.591 30.5162 109.455 31.2628C108.161 31.4619 106.967 31.7605 105.772 32.0592ZM99.0027 39.1272C98.8534 39.1272 98.7539 39.0775 98.6045 39.0775C98.3059 40.0232 98.0072 40.9191 97.7584 41.8649C96.7131 45.2993 95.6678 48.7338 94.6225 52.1683C94.2243 53.5122 94.7221 54.0597 96.1656 53.8606C96.7629 53.761 97.3602 53.6615 97.9575 53.5619C99.9485 53.2135 100.396 52.666 100.197 50.6252C99.8987 47.141 99.5503 43.6567 99.2018 40.1725C99.2018 39.7743 99.1023 39.4757 99.0027 39.1272ZM135.637 50.7745C135.488 50.6252 135.289 50.5257 135.139 50.3764C134.89 50.7746 134.691 51.2225 134.393 51.571C132.651 53.761 130.859 55.9014 129.117 58.0417C126.478 61.2771 126.478 61.3268 129.465 64.2138C130.709 65.4084 131.307 65.259 131.804 63.6662C132.999 59.734 134.194 55.8018 135.388 51.8696C135.537 51.5212 135.587 51.123 135.637 50.7745ZM114.632 70.2365C114.682 70.3361 114.732 70.4854 114.781 70.585C115.428 70.4356 116.125 70.3361 116.772 70.137C120.356 69.2908 123.94 68.4944 127.474 67.6482C128.768 67.3496 128.967 66.7025 128.071 65.707C127.623 65.2093 127.126 64.7613 126.628 64.2635C125.334 63.0192 124.537 62.9694 123.094 63.9649C120.555 65.7568 118.017 67.5487 115.528 69.3904C115.229 69.689 114.931 69.9877 114.632 70.2365ZM104.976 67.3994C105.075 67.3496 105.175 67.2998 105.274 67.25C105.175 66.8518 105.075 66.4536 104.926 66.0554C104.08 63.6662 103.184 61.277 102.288 58.9376C100.894 55.1547 100.745 55.0552 96.7629 55.8018C95.3692 56.0507 95.1203 56.6978 96.066 57.743C98.8036 60.7793 101.591 63.8156 104.329 66.8518C104.528 67.1007 104.727 67.25 104.976 67.3994Z" fill="white"/>
</svg>
