<svg width="278" height="51" viewBox="0 0 278 51" fill="none" xmlns="http://www.w3.org/2000/svg">
<path d="M200.132 33.024C200.103 33.015 200.076 32.999 200.054 32.976L194.63 27.261C194.587 27.215 194.571 27.15 194.589 27.089L196.827 19.535C196.845 19.474 196.894 19.428 196.955 19.413L204.617 17.574C204.678 17.559 204.742 17.578 204.786 17.624L210.21 23.339C210.253 23.385 210.268 23.45 210.251 23.511L208.013 31.066C207.995 31.126 207.946 31.172 207.885 31.187L200.223 33.026C200.193 33.034 200.161 33.033 200.132 33.024ZM194.956 27.092L200.24 32.66L207.704 30.868L209.884 23.508L204.6 17.94L197.136 19.732L194.956 27.092Z" fill="white" stroke="white" stroke-width="0.4"/>
<path d="M205.76 28.886L197.666 26.488C197.605 26.47 197.559 26.421 197.544 26.36C197.53 26.299 197.549 26.235 197.594 26.191L203.718 20.38C203.81 20.293 203.981 20.344 204.011 20.467L205.982 28.676C205.996 28.737 205.977 28.801 205.932 28.845C205.886 28.888 205.821 28.904 205.76 28.886ZM198.058 26.237L205.568 28.461L203.739 20.845L198.058 26.237Z" fill="white" stroke="white" stroke-width="0.4"/>
<path d="M207.712 31.132L205.678 28.833C205.621 28.769 205.619 28.673 205.674 28.606L209.803 23.524L203.789 20.679L197.195 19.789L197.891 26.3L197.541 26.338L196.821 19.603C196.815 19.549 196.834 19.496 196.873 19.458C196.912 19.421 196.966 19.403 197.02 19.41L203.863 20.333C203.881 20.336 203.898 20.341 203.915 20.349L210.157 23.302C210.206 23.325 210.241 23.369 210.253 23.422C210.265 23.475 210.253 23.53 210.218 23.572L206.041 28.712L207.976 30.899L207.712 31.132Z" fill="white" stroke="white" stroke-width="0.4"/>
<path d="M204.876 17.8084L204.539 17.7085L203.721 20.4709L204.058 20.5708L204.876 17.8084Z" fill="white" stroke="white" stroke-width="0.400067" stroke-miterlimit="2"/>
<path d="M200.132 33.024C200.079 33.008 200.037 32.969 200.017 32.917L197.608 26.532L194.805 27.309L194.711 26.97L197.669 26.149C197.756 26.125 197.848 26.172 197.881 26.257L200.265 32.575L205.706 28.575L205.915 28.859L200.286 32.997C200.242 33.03 200.185 33.04 200.132 33.024Z" fill="white" stroke="white" stroke-width="0.4"/>
<path d="M2.72 28.34L3.08 28.62C1.69333 30.4333 1 32.3933 1 34.5C1 37.0067 2.05333 38.9533 4.16 40.34C5.38667 41.1667 6.78 41.58 8.34 41.58C9.9 41.58 11.2533 41.2733 12.4 40.66C14.56 39.54 15.7733 37.66 16.04 35.02C16.0667 34.8333 16.08 34.6467 16.08 34.46C16.08 33.4733 15.8067 32.4067 15.26 31.26C14.7133 30.1133 13.8267 29.06 12.6 28.1L5.4 22.42C3.82666 21.1933 3.04 19.6067 3.04 17.66C3.04 15.7133 3.66667 14.0667 4.92 12.72C6.17334 11.3733 7.86666 10.7 10 10.7C11.0667 10.7 12.2267 10.8333 13.48 11.1H15.08L15.16 16.02H14.76C14.7333 14.74 14.2733 13.7333 13.38 13C12.4867 12.2667 11.3667 11.9 10.02 11.9C8.67333 11.9 7.54667 12.3467 6.64 13.24C5.73334 14.1333 5.28 15.28 5.28 16.68C5.28 18.08 5.86666 19.2467 7.04 20.18L14.44 26.02C17.3733 28.34 18.84 31.14 18.84 34.42C18.84 36.8733 17.8667 38.98 15.92 40.74C14.24 42.26 12 43.02 9.2 43.02C7.49333 43.02 5.97334 42.7 4.64 42.06C2.13334 40.8867 0.626666 38.8867 0.119999 36.06C0.0399989 35.6333 0 35.0933 0 34.44C0 33.7867 0.186668 32.8933 0.560001 31.76C0.933335 30.6267 1.65333 29.4867 2.72 28.34Z" fill="white"/>
<path d="M22.6799 39.26H23.1999C23.8933 39.26 24.4866 39.0133 24.9799 38.52C25.4733 38.0267 25.7333 37.4333 25.7599 36.74V14.34C25.7599 13.7 25.5066 13.16 24.9999 12.72C24.4933 12.28 23.8933 12.06 23.1999 12.06H22.7199L22.6799 11.66H34.3999C35.2266 11.66 36.1266 11.58 37.0999 11.42C38.0733 11.26 38.7599 11.1 39.1599 10.94V15.98H38.7599V15.26C38.7599 14.62 38.5399 14.0733 38.0999 13.62C37.6599 13.1667 37.1333 12.9267 36.5199 12.9H28.3599V25.26H35.1199C35.6533 25.2333 36.1066 25.0333 36.4799 24.66C36.8533 24.2867 37.0399 23.82 37.0399 23.26V22.7H37.4399V29.02H37.0399V28.42C37.0399 27.8867 36.8599 27.4333 36.4999 27.06C36.1399 26.6867 35.6933 26.4867 35.1599 26.46H28.3599V38.42H34.0799C36.0533 38.42 37.5599 37.98 38.5999 37.1C39.6399 36.22 40.5066 34.9133 41.1999 33.18H41.5999L39.2799 39.66H22.6799V39.26Z" fill="white"/>
<path d="M45.7999 37.66C45.7199 37.2867 45.6799 36.5667 45.6799 35.5C45.6799 34.4333 45.8799 33.3 46.2799 32.1H46.6399C46.6133 32.3933 46.5999 32.6867 46.5999 32.98C46.5999 34.6067 47.0933 35.96 48.0799 37.04C49.0666 38.12 50.3733 38.66 51.9999 38.66C53.6799 38.66 55.0599 38.1533 56.1399 37.14C57.2199 36.1267 57.7599 34.8533 57.7599 33.32C57.7599 31.7867 57.2399 30.54 56.1999 29.58L48.5199 22.46C47.0799 21.1267 46.3599 19.5133 46.3599 17.62C46.3599 15.7267 46.9933 14.1067 48.2599 12.76C49.5266 11.4133 51.2399 10.74 53.3999 10.74C54.4133 10.74 55.5599 10.8733 56.8399 11.14H58.3999V16.06H58.0399C58.0399 14.8067 57.6066 13.8067 56.7399 13.06C55.8733 12.3133 54.7599 11.94 53.3999 11.94C52.0399 11.94 50.8999 12.3933 49.9799 13.3C49.0599 14.2067 48.5999 15.34 48.5999 16.7C48.5999 18.06 49.1333 19.2333 50.1999 20.22L58.0799 27.5C59.4133 28.7267 60.0799 30.4067 60.0799 32.54C60.0799 34.6733 59.3999 36.4267 58.0399 37.8C56.6799 39.1733 54.8666 39.86 52.5999 39.86C51.4266 39.86 50.1799 39.68 48.8599 39.32C47.5399 38.96 46.5199 38.4067 45.7999 37.66Z" fill="white"/>
<path d="M64.84 37.66C64.76 37.2867 64.72 36.5667 64.72 35.5C64.72 34.4333 64.92 33.3 65.32 32.1H65.68C65.6533 32.3933 65.64 32.6867 65.64 32.98C65.64 34.6067 66.1333 35.96 67.12 37.04C68.1066 38.12 69.4133 38.66 71.04 38.66C72.72 38.66 74.1 38.1533 75.18 37.14C76.26 36.1267 76.8 34.8533 76.8 33.32C76.8 31.7867 76.28 30.54 75.24 29.58L67.56 22.46C66.12 21.1267 65.4 19.5133 65.4 17.62C65.4 15.7267 66.0333 14.1067 67.3 12.76C68.5666 11.4133 70.28 10.74 72.44 10.74C73.4533 10.74 74.6 10.8733 75.88 11.14H77.44V16.06H77.08C77.08 14.8067 76.6466 13.8067 75.78 13.06C74.9133 12.3133 73.8 11.94 72.44 11.94C71.08 11.94 69.94 12.3933 69.02 13.3C68.1 14.2067 67.64 15.34 67.64 16.7C67.64 18.06 68.1733 19.2333 69.24 20.22L77.12 27.5C78.4533 28.7267 79.12 30.4067 79.12 32.54C79.12 34.6733 78.44 36.4267 77.08 37.8C75.72 39.1733 73.9066 39.86 71.64 39.86C70.4666 39.86 69.22 39.68 67.9 39.32C66.58 38.96 65.56 38.4067 64.84 37.66Z" fill="white"/>
<path d="M83.8401 38.9H84.3601C85.0534 38.9 85.6468 38.6533 86.1401 38.16C86.6334 37.6667 86.8934 37.0733 86.9201 36.38V14.18C86.8934 13.4867 86.6334 12.9 86.1401 12.42C85.6468 11.94 85.0534 11.7 84.3601 11.7H83.8401V11.3H92.6001V11.7H92.0801C91.3868 11.7 90.7934 11.94 90.3001 12.42C89.8068 12.9 89.5468 13.4867 89.5201 14.18V36.38C89.5201 37.0733 89.7734 37.6667 90.2801 38.16C90.7868 38.6533 91.3868 38.9 92.0801 38.9H92.6001V39.3H83.8401V38.9Z" fill="white"/>
<path fill-rule="evenodd" clip-rule="evenodd" d="M100.04 14.76C102.893 12.08 106.593 10.74 111.14 10.74C115.687 10.74 119.387 12.08 122.24 14.76C125.093 17.44 126.52 20.9533 126.52 25.3C126.52 29.6467 125.093 33.16 122.24 35.84C119.387 38.52 115.687 39.86 111.14 39.86C106.593 39.86 102.893 38.52 100.04 35.84C97.1867 33.16 95.76 29.6467 95.76 25.3C95.76 20.9533 97.1867 17.44 100.04 14.76ZM102.22 34.98C104.473 37.4333 107.44 38.66 111.12 38.66C114.8 38.66 117.767 37.4333 120.02 34.98C122.273 32.5267 123.4 29.3 123.4 25.3C123.4 21.3 122.273 18.0733 120.02 15.62C117.767 13.1667 114.8 11.94 111.12 11.94C107.44 11.94 104.473 13.1667 102.22 15.62C99.9667 18.0733 98.84 21.3 98.84 25.3C98.84 29.3 99.9667 32.5267 102.22 34.98Z" fill="white"/>
<path d="M159.92 1H159.2C158.533 1 157.96 1.23334 157.48 1.7C157 2.16667 156.747 2.73333 156.72 3.4V34.76C156.72 36.3067 156.813 37.7733 157 39.16L157.08 39.88H156.72L134.92 16.6V47.2C134.92 47.8667 135.16 48.4333 135.64 48.9C135.88 49.1167 136.143 49.2833 136.43 49.4C136.717 49.517 137.027 49.6 137.36 49.6H138.12V50H129.88V49.6H130.64C131.307 49.6 131.88 49.3667 132.36 48.9C132.84 48.46 133.08 47.8933 133.08 47.2V15.72C133.08 14.0933 132.987 12.64 132.8 11.36L132.72 10.72H133.12L154.92 34V3.5C154.893 2.76667 154.64 2.16667 154.16 1.7C153.68 1.23334 153.107 1 152.44 1H151.68V0.600006H159.92V1Z" fill="white"/>
<path d="M159.68 19.44L159.36 19.64C158.533 18.6533 158.12 17.6733 158.12 16.7C158.12 15.7267 158.347 14.8867 158.8 14.18C159.253 13.4733 159.987 12.8733 161 12.38C162.013 11.8867 163.16 11.64 164.44 11.64H180.84C181.667 11.64 182.58 11.56 183.58 11.4C184.58 11.24 185.28 11.08 185.68 10.92V15.96L185.28 15.92V15.24C185.28 14.6 185.053 14.0467 184.6 13.58C184.147 13.1133 183.613 12.8667 183 12.84H175.4V36.8C175.427 37.76 175.853 38.48 176.68 38.96C177.08 39.1733 177.507 39.28 177.96 39.28H178.48V39.68H169.72V39.28H170.24C170.933 39.28 171.527 39.04 172.02 38.56C172.513 38.08 172.773 37.5067 172.8 36.84V12.84H164.44C162.307 12.84 160.76 13.52 159.8 14.88C159.293 15.5733 159.04 16.3 159.04 17.06C159.04 17.82 159.253 18.6133 159.68 19.44Z" fill="white"/>
<path fill-rule="evenodd" clip-rule="evenodd" d="M191.32 14.76C194.173 12.08 197.873 10.74 202.42 10.74C206.967 10.74 210.667 12.08 213.52 14.76C216.373 17.44 217.8 20.9534 217.8 25.3C217.8 29.6467 216.373 33.16 213.52 35.84C210.667 38.52 206.967 39.86 202.42 39.86C197.873 39.86 194.173 38.52 191.32 35.84C188.467 33.16 187.04 29.6467 187.04 25.3C187.04 20.9534 188.467 17.44 191.32 14.76ZM193.5 34.98C195.753 37.4334 198.72 38.66 202.4 38.66C206.08 38.66 209.047 37.4334 211.3 34.98C213.553 32.5267 214.68 29.3 214.68 25.3C214.68 21.3 213.553 18.0734 211.3 15.62C209.047 13.1667 206.08 11.94 202.4 11.94C198.72 11.94 195.753 13.1667 193.5 15.62C191.247 18.0734 190.12 21.3 190.12 25.3C190.12 29.3 191.247 32.5267 193.5 34.98Z" fill="white"/>
<path d="M254.76 38.9H255.4V39.3H246.72V38.94H247.32C247.773 38.94 248.16 38.7667 248.48 38.42C248.8 38.0733 248.933 37.6733 248.88 37.22L247.08 17.1L238.68 35.78C237.933 37.4067 237.48 38.7667 237.32 39.86H236.92L226.68 17.66L224.96 37.22C224.907 37.6467 225.04 38.04 225.36 38.4C225.68 38.76 226.067 38.94 226.52 38.94H227.12V39.3H219.36V38.9H220C220.747 38.9 221.393 38.6733 221.94 38.22C222.487 37.7667 222.813 37.1533 222.92 36.38L225.92 10.74H226.32L237.48 34.86L248.4 10.74H248.76L251.84 36.38C251.947 37.1533 252.28 37.7667 252.84 38.22C253.4 38.6733 254.04 38.9 254.76 38.9Z" fill="white"/>
<path d="M258.4 39.26H258.92C259.613 39.26 260.207 39.0133 260.7 38.52C261.193 38.0267 261.453 37.4333 261.48 36.74V14.34C261.48 13.7 261.227 13.16 260.72 12.72C260.213 12.28 259.613 12.06 258.92 12.06H258.44L258.4 11.66H270.12C270.947 11.66 271.847 11.58 272.82 11.42C273.793 11.26 274.48 11.1 274.88 10.94V15.98H274.48V15.26C274.48 14.62 274.26 14.0733 273.82 13.62C273.38 13.1667 272.853 12.9267 272.24 12.9H264.08V25.26H270.84C271.373 25.2333 271.827 25.0333 272.2 24.66C272.573 24.2867 272.76 23.82 272.76 23.26V22.7H273.16V29.02H272.76V28.42C272.76 27.8867 272.58 27.4333 272.22 27.06C271.86 26.6867 271.413 26.4867 270.88 26.46H264.08V38.42H269.8C271.773 38.42 273.28 37.98 274.32 37.1C275.36 36.22 276.227 34.9133 276.92 33.18H277.32L275 39.66H258.4V39.26Z" fill="white"/>
<path d="M277.3 0H0V1H277.3V0Z" fill="white"/>
<path d="M277.3 49.6H0V50.6H277.3V49.6Z" fill="white"/>
</svg>
